<?xml version="1.0" standalone="no"?>
<!DOCTYPE svg PUBLIC "-//W3C//DTD SVG 20010904//EN"
 "http://www.w3.org/TR/2001/REC-SVG-20010904/DTD/svg10.dtd">
<svg version="1.0" xmlns="http://www.w3.org/2000/svg"
 width="1687.000000pt" height="1687.000000pt" viewBox="0 0 1687.000000 1687.000000"
 preserveAspectRatio="xMidYMid meet">
<metadata>
Created by potrace 1.11, written by Peter Selinger 2001-2013
</metadata>
<g transform="translate(0.000000,1687.000000) scale(0.100000,-0.100000)"
fill="#000000" stroke="none">
<path d="M9570 15779 c-794 -55 -1457 -202 -2150 -475 -213 -84 -584 -267
-775 -382 -1142 -687 -1885 -1732 -2084 -2932 -84 -501 -78 -1054 15 -1510 53
-256 128 -474 255 -739 221 -461 471 -785 884 -1146 343 -301 999 -719 1895
-1210 565 -309 731 -415 1055 -673 130 -103 301 -278 395 -404 112 -149 180
-287 222 -443 32 -119 32 -123 32 -355 0 -257 -9 -334 -65 -529 -126 -440
-398 -804 -804 -1076 -126 -84 -400 -220 -568 -280 -463 -166 -1016 -231
-1642 -195 -452 26 -753 85 -1180 230 -496 169 -911 365 -1446 683 -175 104
-256 140 -368 162 -167 34 -269 -15 -382 -184 -169 -252 -323 -758 -403 -1326
-49 -343 -36 -536 46 -703 93 -189 466 -440 958 -645 416 -173 827 -295 1315
-391 715 -141 1062 -172 1788 -163 437 5 639 17 967 57 1141 140 2206 524
3037 1096 447 308 875 723 1178 1144 440 610 697 1269 792 2030 26 211 26 817
0 1010 -51 371 -130 641 -286 973 -165 352 -373 641 -695 962 -210 209 -295
281 -556 467 -468 333 -853 567 -1685 1023 -763 419 -1143 705 -1412 1065
-227 304 -295 684 -201 1120 94 442 337 801 733 1085 102 74 387 219 516 264
523 180 1339 196 1964 37 172 -43 464 -135 615 -193 265 -102 688 -298 900
-418 222 -126 414 -172 517 -125 156 70 304 356 418 805 108 423 168 939 131
1114 -53 251 -217 410 -641 621 -514 256 -1271 449 -2105 536 -181 19 -974 28
-1180 13z"/>
<path d="M14460 12704 c-336 -41 -577 -136 -846 -334 -544 -401 -994 -1241
-1188 -2220 -80 -400 -107 -730 -86 -1030 15 -209 41 -354 90 -503 156 -468
472 -718 967 -768 287 -28 636 63 931 243 154 94 341 253 456 388 38 45 44 50
35 25 -73 -196 -130 -361 -175 -510 -78 -255 -444 -1671 -444 -1718 0 -32 7
-46 38 -77 78 -77 258 -118 567 -126 217 -7 303 4 392 47 74 36 87 63 153 315
513 1973 1502 5829 1503 5861 3 79 -59 128 -203 162 -188 45 -471 51 -602 15
-45 -13 -72 -28 -103 -58 -40 -40 -43 -47 -89 -224 -64 -249 -55 -234 -99
-158 -207 354 -526 586 -892 651 -89 15 -338 27 -405 19z m310 -1065 c161 -26
274 -85 400 -209 89 -88 149 -170 218 -300 l41 -75 -95 -355 c-136 -512 -183
-646 -311 -890 -244 -466 -576 -799 -908 -911 -59 -20 -90 -24 -195 -24 -119
0 -128 1 -190 31 -114 55 -186 151 -227 304 -25 93 -25 416 0 595 77 544 249
1041 482 1390 227 342 492 492 785 444z"/>
<path d="M3100 11609 c-265 -25 -443 -125 -534 -298 -106 -203 -149 -466 -96
-589 53 -123 173 -178 441 -202 218 -19 446 -9 584 26 249 62 402 261 461 599
55 314 -69 433 -487 465 -151 11 -245 11 -369 -1z"/>
<path d="M2552 9980 c-164 -21 -271 -65 -298 -123 -8 -18 -250 -921 -538
-2007 -288 -1086 -538 -2013 -555 -2059 -87 -239 -241 -388 -435 -422 -66 -11
-181 -9 -394 7 l-83 7 -43 -46 c-78 -80 -152 -270 -187 -479 -34 -199 -18
-262 74 -297 138 -51 373 -82 635 -82 365 0 612 48 856 166 144 69 242 140
366 265 175 175 297 370 408 657 69 178 60 146 557 2018 245 924 479 1804 520
1955 45 171 71 286 68 303 -11 55 -101 97 -262 123 -105 17 -586 27 -689 14z"/>
</g>
</svg>
